<svg width="1440" height="773" viewBox="0 0 1440 773" fill="none" xmlns="http://www.w3.org/2000/svg">
<rect width="1440" height="741" fill="#EFDBBF"/>
<path d="M1197.15 648.878C1178.93 648.824 1160.65 648.918 1142.43 648.878V607.507C1097.83 609.149 1088.3 550.202 1131.77 538.779C1093.69 532.053 1095.07 477.404 1131.77 469.383C1096.15 462.07 1093.68 411.184 1129.1 401.322C1087.02 389.058 1099.93 328.03 1143.77 332.594V317.901L1033 318.581L1343.28 27L1653.56 319.235H1542.79C1543.15 321.371 1542.27 330.712 1542.79 331.233C1543.36 331.78 1555.4 332.514 1558.55 333.488C1591.23 343.564 1591.31 394.409 1556.11 401.309C1591.49 408.128 1593.34 462.083 1557.44 469.37C1592.27 478.778 1591.89 531.532 1556.11 538.765C1599.76 550.256 1588.2 610.43 1544.11 607.494V648.864C1525 648.904 1505.84 648.811 1486.73 648.864C1459.17 648.944 1431.54 648.837 1403.99 648.864C1362.63 648.904 1321.23 648.904 1279.87 648.864C1252.32 648.837 1224.69 648.958 1197.13 648.864L1197.15 648.878ZM1564.14 296.562L1343.28 88.3216L1125.08 296.562H1564.14ZM1173.13 400.655C1173.07 417.537 1173.14 434.485 1173.13 451.367C1173.11 469.143 1173.11 486.972 1173.13 504.748C1173.14 522.07 1173.07 539.473 1173.13 556.795C1173.18 575.011 1173.09 593.294 1173.13 611.511H1512.1C1512.14 593.294 1512.04 575.011 1512.1 556.795C1512.15 538.579 1512.08 522.07 1512.1 504.748C1512.11 486.972 1512.11 469.143 1512.1 451.367C1512.08 433.591 1512.15 417.537 1512.1 400.655C1512.04 382.439 1512.14 364.156 1512.1 345.939H1173.13C1173.09 364.156 1173.18 382.439 1173.13 400.655Z" fill="#91040C"/>
<path d="M1329.16 648.879C1322.1 655.805 1257.96 690.53 1258.56 694.693C1259.32 700.018 1292.94 734.582 1297.14 742.95C1305.74 747.567 1318.76 745.739 1326.96 750.503C1333.52 754.32 1341.92 766.157 1347.84 771.642C1331.16 767.612 1310.28 767.532 1294.1 763.342C1289.63 762.181 1284.05 758.404 1279.16 756.936C1266.18 753.052 1224.33 752.519 1211.13 755.721C1205.9 756.989 1200.94 760.432 1196 761.94C1184.06 765.597 1171.87 768.933 1159.67 771.642L1185.03 744.965H1152.33L1121 757.656C1128.18 751.184 1139.27 729.151 1146.33 724.947C1177.4 724.16 1208.69 726.015 1239.75 724.947C1241.28 724.894 1244.28 725.614 1245.07 724.293L1215.94 685.578L1246.41 648.892C1273.96 648.986 1301.59 648.866 1329.15 648.892L1329.16 648.879Z" fill="#23140D"/>
<path d="M1564.14 296.562H1125.08L1343.28 88.3223L1564.14 296.562ZM1325.74 191.989C1346.87 213.074 1380.48 183.354 1360.67 160.4C1339.8 136.245 1304.08 170.369 1325.74 191.989ZM1263.53 216.811C1254.25 218.319 1246.22 228.181 1245.27 237.323C1242.83 260.85 1274.1 274.009 1286.81 253.444C1297.92 235.508 1284.81 213.354 1263.53 216.811ZM1359.49 257.394C1380.97 236.949 1350.12 201.651 1328.06 222.629C1305.27 244.302 1337.51 278.333 1359.49 257.394ZM1414.34 216.797C1384.65 221.548 1390.81 269.805 1424.39 262.892C1451.5 257.314 1443.9 212.06 1414.34 216.797Z" fill="#23140D"/>
<path d="M1257.2 556.792C1256.96 563.425 1278.67 552.353 1278.5 558.999L1401.5 556.791C1401.54 550.132 1427.97 563.452 1428.02 556.792H1512.1C1512.04 575.009 1512.14 593.292 1512.1 611.508H1173.13C1173.09 593.292 1173.18 575.009 1173.13 556.792H1257.2Z" fill="#23140D"/>
<path d="M1173.13 400.655C1173.18 382.439 1173.09 364.156 1173.13 345.939H1512.1C1512.14 364.156 1512.04 382.439 1512.1 400.655H1428.02C1427.97 393.555 1413.04 406.1 1413 399H1272.5C1272.67 406.086 1256.96 393.569 1257.2 400.655H1173.13Z" fill="#23140D"/>
<path d="M1512.1 451.369C1512.11 469.145 1512.11 486.974 1512.1 504.75H1428.02C1428.06 486.974 1428.06 469.145 1428.02 451.369H1512.1Z" fill="#23140D"/>
<path d="M1257.2 451.369C1257.08 469.132 1257.08 486.988 1257.2 504.75H1173.13C1173.11 486.974 1173.11 469.145 1173.13 451.369H1257.2Z" fill="#23140D"/>
<path d="M1257.2 504.75C1257.32 522.286 1257.83 539.127 1257.2 556.797H1173.13C1173.07 539.474 1173.14 522.072 1173.13 504.75H1257.2Z" fill="#EFDBBF"/>
<path d="M1512.1 504.75C1512.08 522.072 1512.15 539.474 1512.1 556.797H1428.02C1428.17 539.474 1427.99 522.072 1428.02 504.75H1512.1Z" fill="#EFDBBF"/>
<path d="M1257.2 400.658C1257.79 417.86 1257.31 434.302 1257.2 451.37H1173.13C1173.14 434.489 1173.07 417.54 1173.13 400.658H1257.2Z" fill="#EFDBBF"/>
<path d="M1512.1 400.658C1512.15 417.54 1512.08 434.489 1512.1 451.37H1428.02C1427.99 434.489 1428.15 417.54 1428.02 400.658H1512.1Z" fill="#EFDBBF"/>
<path d="M1325.74 191.987C1304.08 170.367 1339.79 136.243 1360.67 160.398C1380.48 183.339 1346.87 213.059 1325.74 191.987Z" fill="#EFDBBF"/>
<path d="M1414.34 216.794C1443.9 212.057 1451.5 257.311 1424.39 262.889C1390.81 269.802 1384.65 221.545 1414.34 216.794Z" fill="#EFDBBF"/>
<path d="M1263.53 216.807C1284.81 213.35 1297.92 235.504 1286.81 253.44C1274.1 273.992 1242.81 260.833 1245.27 237.319C1246.22 228.177 1254.25 218.315 1263.53 216.807Z" fill="#EFDBBF"/>
<path d="M1359.49 257.394C1337.5 278.333 1305.27 244.302 1328.06 222.629C1350.12 201.651 1380.98 236.949 1359.49 257.394Z" fill="#EFDBBF"/>
<path d="M1257.09 413.054C1256.85 407.062 1257.26 400.992 1257.09 395H1427.94C1427.98 401.003 1427.89 407.051 1427.94 413.054C1428.07 427.328 1427.91 441.658 1427.94 455.932C1427.98 470.962 1427.98 486.038 1427.94 501.068C1427.91 515.714 1428.09 530.428 1427.94 545.074C1427.89 550.705 1427.98 556.369 1427.94 562H1257.09C1257.26 556.381 1256.85 550.682 1257.09 545.074C1257.72 530.135 1257.21 515.894 1257.09 501.068C1256.97 486.241 1256.97 470.951 1257.09 455.932C1257.21 440.914 1257.68 427.599 1257.09 413.054Z" fill="#91040C"/>
<path d="M1421.52 648.879L1451.78 685.592L1422.87 724.294C1424.29 725.602 1427.56 724.908 1429.53 724.948C1459.72 725.708 1490.08 724.374 1520.28 724.948C1522.03 726.002 1547.21 755.655 1545.64 756.963L1515.61 744.966H1484.25C1492.21 754.387 1503.24 760.78 1509.6 771.643C1498.85 767.786 1487.44 765.971 1476.53 762.688C1469.53 760.58 1458.1 754.12 1451.6 753.64C1440.9 752.839 1408.33 752.866 1398.26 754.387C1392.36 755.281 1383.69 760.726 1377.03 762.515C1358.85 767.386 1338.3 767.239 1320.13 772.991C1319.57 770.749 1320.98 770.308 1322.09 768.96C1323.53 767.212 1341.59 750.317 1342.87 749.703C1349.69 746.434 1362.85 747.354 1370.23 743.698L1409.51 694.921L1338.81 648.879C1366.37 648.853 1393.99 648.959 1421.55 648.879H1421.52Z" fill="#23140D"/>
<path d="M310 476L306.699 422.763C312.279 411.094 311.296 395.645 301.189 391.467L304.23 386.906C304.675 387.412 305.13 387.9 305.595 388.367C311.241 394.03 324.236 402.91 331.489 406.35C373.058 426.097 417.604 404.534 440.124 368.022V368.033C441.506 367.071 444.956 371.196 446.017 372.286C470.893 398.016 492.342 429.185 518.29 455.139C527.193 464.04 537.424 473.967 548.309 480.239C529.646 496.203 501.298 495.893 479.357 486.853C458.155 508.737 441.999 522.382 409.591 519.742C390.049 518.15 412.5 565.538 370.5 558C351 554.5 313 479.5 310 476ZM430.193 422.763C406.923 426.417 412.108 465.076 438.26 459.67C459.666 455.246 454.298 418.969 430.193 422.763Z" fill="#274619"/>
<path d="M365.985 206.053C367.215 209.725 369.537 213.782 371.56 217.079C402.846 268.346 437.546 317.612 482.336 357.756C482.828 358.195 485.321 358.484 483.706 360.186C483.181 360.732 470.909 364.158 469.143 364.372C457.962 365.699 449.391 365.186 438.809 361.771C435.288 360.636 431.897 358.859 428.58 357.242C417.687 371.566 406.42 385.697 389.033 392.345C354.129 405.683 318.595 388.469 302.791 355.979C284.997 363.494 265.78 367.68 247.237 360.197C245.846 358.345 253.315 354.534 254.738 353.26C269.632 339.964 284.43 322.258 296.874 306.564C321.773 275.187 343.408 241.166 363.791 206.716L365.985 206.053ZM351.808 293.011C333.896 296.704 334.666 327.717 354.878 330.147C382.356 333.445 383.148 286.556 351.808 293.011Z" fill="#274619"/>
<path d="M121.989 669.438C57.5665 667.937 -12.2604 661.959 -75.1641 643.069C-92.2633 637.93 -108.603 630.997 -124.816 623.632C-125.171 621.864 -125.069 622.017 -124.006 620.999C-114.172 611.624 -102.49 603.738 -92.5037 594.427C-74.2148 577.356 -54.8501 557.08 -38.0926 538.445C-19.6012 517.851 -2.29955 496.137 13.7871 473.584C30.3673 493.389 49.6688 512.902 75.4504 519.708C108.345 528.408 136.354 518.258 162.959 499.126C201.777 533.649 252.872 527.556 290.348 494.56L309.321 475.441C341.279 516.884 376.072 556.775 413.7 593.155C424.306 603.407 436.267 612.464 446 623.632C396.474 647.763 341.646 658.231 287.159 664.35C258.631 667.555 230.052 669.031 201.726 669.438C175.274 669.82 148.429 670.049 121.989 669.438ZM33.0379 553.976C10.7494 558.619 11.319 595.8 35.2908 598.204C70.1852 601.703 67.1096 546.878 33.0379 553.976ZM276.843 592.671C299.423 613.914 328.533 579.289 307.928 559.535C287.323 539.78 255.909 572.967 276.843 592.671ZM184.462 602.835C206.738 625.235 238.532 587.659 213.737 568.961C191.094 551.89 165.642 583.92 184.462 602.835Z" fill="#274619"/>
<path d="M249.178 322.119C250.809 320.985 254.88 325.851 256.131 327.137C285.486 357.499 310.795 394.278 341.414 424.905C351.919 435.408 363.992 447.121 376.836 454.522C354.814 473.36 321.364 472.994 295.473 462.327C270.455 488.15 251.391 504.251 213.149 501.136C190.09 499.258 176.361 485.464 160.204 470.989C149.395 481.227 141.355 491.541 126.981 497.19C99.8643 507.832 71.559 502.12 49.3977 484.153C45.9338 481.341 27.426 462.579 25.8457 462.264C24.9861 462.1 12.9636 467.295 9.24685 468.026C-10.9803 472.036 -37.3766 468.493 -54.2283 456.388C-36.6939 441.813 -19.9054 425.8 -4.30527 409.119C13.5831 390.004 32.5459 368.04 49.3723 347.917C52.4443 344.247 68.6134 321.211 70.2948 320.846C72.1658 320.442 72.3428 321.968 73.2403 322.914C78.9671 328.966 83.7711 339.431 90.4334 346.113C97.0957 352.796 112.43 363.274 120.989 367.334C170.04 390.635 222.605 365.19 249.178 322.107V322.119ZM237.459 386.701C210.001 391.013 216.12 436.631 246.979 430.251C272.237 425.031 265.903 382.225 237.459 386.701ZM76.9065 395.552C51.0411 397.141 48.2473 434.853 73.3541 440.06C106.071 446.856 108.865 393.585 76.9065 395.552Z" fill="#274619"/>
<path d="M161.694 130.982C163.146 135.315 165.886 140.103 168.272 143.994C205.191 204.489 246.136 262.622 298.989 309.993C299.569 310.51 302.511 310.852 300.605 312.86C299.986 313.504 285.504 317.547 283.421 317.799C270.227 319.366 260.113 318.759 247.626 314.73C243.472 313.391 239.47 311.294 235.556 309.386C222.703 326.288 209.408 342.962 188.891 350.807C147.705 366.547 105.774 346.234 87.1255 307.896C66.1286 316.763 43.4524 321.703 21.5717 312.873C19.9303 310.687 28.7432 306.19 30.4224 304.687C47.9977 288.998 65.4594 268.104 80.1434 249.586C109.524 212.561 135.054 172.416 159.106 131.766L161.694 130.982ZM144.965 233.593C123.829 237.951 124.738 274.547 148.589 277.414C181.012 281.305 181.946 225.976 144.965 233.593Z" fill="#274619"/>
<path d="M33.6007 485.346C37.9625 484.644 43.7681 485.854 48.3435 485.346C50.4481 487.461 47.3674 487.39 46.3405 488.376C43.392 491.182 32.2485 502.783 31.0995 505.722C29.9506 508.66 30.8962 512.656 29.5439 515.848C31.3029 516.306 31.5774 515.126 32.5941 514.333C40.057 508.558 46.0457 500.384 52.8477 493.938C54.3016 492.565 62.3135 485.214 63.1066 484.858C64.9774 483.994 74.5449 483.933 76.7919 484.36C79.7201 484.909 81.2962 488.223 82.8416 490.511C88.9217 499.509 93.8122 512.402 100.268 520.871C102.739 524.104 107.213 525.914 106.643 520.688C106.46 518.98 102.211 507.908 101.204 505.701C100.086 503.241 88.6167 485.143 89.5317 484.339C92.8565 484.746 97.6962 483.465 100.696 484.848C102.414 485.641 103.085 488.213 104.549 489.423C107.935 492.209 111.992 493.348 114.94 495.513C150.913 521.969 176.697 561.368 185.634 605.291C187.068 612.358 187.464 619.688 189.162 626.673C188.278 626.877 183.397 630.679 182.523 631.727C177.022 638.264 179.198 644.741 181.028 652.092C168.594 650.303 170.79 656.759 170.861 666.337C166.56 666.367 162.89 667.455 158.66 667.353V602.282C146.571 600.645 133.374 601.021 121.041 601.265L132.235 593.65C141.579 587.275 145.341 569.075 134.614 562.781C120.431 554.464 108.148 572.288 104.275 583.97C100.787 577.982 99.8822 572.166 95.134 566.675C87.9863 558.43 77.8087 557.952 70.7016 566.665C59.8225 579.985 76.5581 593.619 86.4815 601.255C74.3009 601.123 62.0593 601.356 49.8686 601.255L48.862 643.968C46.127 643.938 43.7987 645.046 41.2772 645.026C33.7228 644.954 26.8495 643.795 19.3866 644.975C17.0481 643.033 27.7544 639.657 28.4153 639.271C41.3483 631.716 40.911 615.652 28.2323 608.169C14.7096 600.187 2.7527 614.92 2.09182 627.7C-0.226356 628.117 0.46505 627.578 -0.175499 626.399C-3.66293 620.004 -5.20847 611.331 -13.2306 607.955C-21.2527 604.58 -32.3656 608.687 -34.2873 617.228C-37.246 630.364 -27.3328 637.207 -17.511 642.718C-16.6875 643.175 -14.5014 643.612 -16.2096 644.975C-17.5822 646.073 -46.6611 645.005 -51.3279 645.026C-53.3716 645.026 -55.3745 643.958 -56.8691 643.968C-57.3165 599.567 -39.6964 555.318 -10.1295 522.437C-4.18151 515.818 27.0427 486.403 33.621 485.356L33.6007 485.346Z" fill="#91040C"/>
<path d="M86.4715 601.256C76.548 593.62 59.8124 579.986 70.6916 566.667C77.7986 557.963 87.9763 558.431 95.124 566.677C99.8721 572.157 100.787 577.983 104.264 583.972C108.138 572.289 120.42 554.466 134.604 562.783C145.331 569.066 141.569 587.276 132.225 593.651L121.031 601.266C117.99 601.327 114.92 601.226 111.87 601.266V667.365H156.617L144.497 675.072C140.908 677.675 139.779 680.999 135.265 682.616C130.822 683.379 115.377 681.142 112.897 683.633C110.101 686.449 112.917 734.033 111.88 741.587C107.152 741.546 102.383 741.607 97.6455 741.587V682.606H62.0594C61.8053 680.705 62.2526 678.468 62.0594 676.495H6.12838V646.003H-9.12278V676.505H-61.4851C-61.6986 676.505 -62.634 678.03 -63 677.522V644.986C-61.0377 646.044 -57.5909 643.97 -56.9097 643.97C-55.4151 643.97 -53.412 645.037 -51.3684 645.027C-46.6914 645.017 -17.6228 646.074 -16.2502 644.976C-14.5522 643.614 -16.7281 643.177 -17.5516 642.719C-27.3734 637.218 -37.2866 630.376 -34.3279 617.229C-32.4062 608.678 -20.9373 604.733 -13.271 607.957C-5.6048 611.18 -3.70352 620.005 -0.216094 626.4C0.424455 627.58 -0.266951 628.119 2.05122 627.702C2.71211 614.921 14.6793 600.189 28.1918 608.17C40.8706 615.653 41.3077 631.718 28.3747 639.272C27.7138 639.659 17.0075 643.034 19.346 644.976C26.8089 643.787 33.6923 644.956 41.2366 645.027C43.7581 645.047 46.0864 643.939 48.8214 643.97C52.1868 644.01 57.8399 646.034 62.0391 644.986C62.6593 651.575 61.1952 659.495 62.0086 665.88C62.1102 666.694 62.0493 667.406 63.0558 667.355H97.6353V601.277C93.9242 601.236 90.1724 601.307 86.4511 601.277L86.4715 601.256ZM97.6455 596.172C98.3368 595.451 91.6975 579.528 90.3655 577.536C83.4619 567.266 78.4799 576.58 82.5265 584.358C83.7364 586.686 95.6425 598.287 97.6455 596.172ZM127.904 574.068C120.39 565.345 111.707 592.329 111.9 597.189C113.08 598.47 125.342 587.601 126.45 585.771C128.31 582.721 130.578 577.18 127.904 574.079V574.068ZM-16.5856 617.931C-24.4552 613.325 -26.3464 625.312 -19.5139 631.779C-17.1143 634.046 -4.62877 639.659 -5.43199 634.738C-5.70651 633.06 -15.1622 618.765 -16.5856 617.931ZM26.3107 618.714C25.8227 617.931 21.3286 616.162 19.8137 617.422C18.9291 618.154 8.36523 637.066 9.19896 637.859C14.6995 637.269 25.3448 631.82 26.4225 626.126C26.6767 624.794 26.8089 619.527 26.3005 618.714H26.3107Z" fill="#23140D"/>
<path d="M121.041 601.258C133.374 601.014 146.571 600.638 158.66 602.275V667.346C162.89 667.448 166.561 666.36 170.861 666.33C178.131 666.279 187.688 667.245 194.246 670.397C219.574 682.547 225.786 718.794 208.461 740.023C194.704 756.881 164.517 761.995 146.521 749.133C144.213 747.486 140.654 742.382 138.62 741.782C134.015 740.41 118.001 741.619 111.88 741.579C112.917 734.024 110.101 686.441 112.897 683.624C118.5 679.5 128.694 682.608 135.265 682.608C139.79 680.991 140.918 677.677 144.497 675.063L156.617 667.357H111.88V601.258C114.92 601.217 117.991 601.319 121.031 601.258H121.041ZM180.724 681.927C170.556 675.44 175.528 698.011 171.868 702.932L161.04 684.743C148.086 684.56 163.48 697.981 161.7 699.892C157.634 699.353 147.964 690.833 146.429 697.381C145.209 702.597 156.18 699.659 158.65 703.461C156.464 704 142.057 703.664 147.527 707.467C152.204 710.721 162.88 707.091 167.791 711.585C161.223 717.309 154.868 713.69 147.486 712.093C146.297 715.327 147.314 732.56 152.031 731.401C155.437 725.829 161.65 722.23 167.811 720.227C167.882 727.212 161.07 731.727 160.704 738.518C164.537 739.393 166.581 737.553 169.845 736.495C168.879 742.25 175.04 744.507 175.843 737.939C176.494 732.601 174.593 726.867 175.965 721.244C178.578 722.718 181.995 734.98 183.601 735.458C186.895 736.434 187.516 731.564 188.644 731.493C189 731.472 193.443 734.807 195.212 732.347C196.31 730.832 191.918 725.819 198.303 723.776C198.385 721.773 184.171 716.669 182.056 714.625C188.543 708.484 193.311 716.475 200.357 715.123C198.212 705.525 201.669 710.304 204.18 707.762C205.126 706.806 206.213 701.59 203.844 700.98L192.233 703.939C192.833 699.587 201.496 698.845 196.799 693.751C193.779 690.477 184.77 700.34 182.066 702.424L185.106 702.932C184.343 705.505 181.212 704.986 179.016 704.946C181.232 698.51 187.831 692.185 188.187 685.129C188.36 681.682 183.957 684.56 182.483 684.316C181.527 684.163 181.415 682.343 180.744 681.906L180.724 681.927Z" fill="#274619"/>
<path d="M33.6009 467.047C30.937 462.36 -0.937856 426.591 1.06513 424.354C19.6715 423.408 23.6267 415.254 24.4604 397.908C25.5483 396.952 46.3509 405.747 52.431 405.097C56.5895 404.649 65.3538 396.281 70.8646 393.994C82.6486 389.103 90.8334 393.892 100.177 400.979C102.251 402.555 105.596 407.313 107.518 407.872C110.009 408.594 113.273 407.811 116.181 408.36C124.05 409.835 131.584 412.326 139.332 414.186L101.713 468.064C96.8627 468.46 90.7317 465.949 85.4447 467.047C85.648 457.306 89.6744 446.793 88.5458 437.002C88.0781 432.966 86.3801 432.061 84.2246 435.823C81.6624 440.306 74.0877 465.349 72.2677 466.569C71.2103 467.281 58.9789 467.392 58.1553 466.874C57.5147 466.467 52.1158 456.188 50.2857 453.91C49.0555 452.385 45.0393 447.749 43.26 447.718C40.1894 451.013 50.0416 465.959 48.8419 467.037C45.5578 467.789 35.8377 466.03 33.5907 467.037L33.6009 467.047Z" fill="#91040C"/>
<path d="M33.6007 467.046C35.8477 466.039 45.5576 467.798 48.8519 467.046C50.0618 465.968 40.1994 451.022 43.27 447.728C45.0391 447.768 49.0553 452.395 50.2957 453.92C52.1258 456.197 57.5247 466.487 58.1653 466.883C58.9888 467.402 71.2203 467.29 72.2777 466.578C74.0976 465.348 81.6622 440.316 84.2346 435.832C86.3901 432.07 88.088 432.975 88.5557 437.011C89.6843 446.802 85.658 457.316 85.4546 467.056C90.7519 465.948 96.8727 468.459 101.723 468.073C106.572 467.686 117.106 461.596 123.888 460.244C138.224 457.366 157.084 458.77 159.585 476.807C163.103 502.144 131.655 502.479 114.94 495.525C111.992 493.359 107.935 492.22 104.549 489.435C103.085 488.235 102.414 485.652 100.696 484.859C97.686 483.476 92.8464 484.757 89.5318 484.351C88.6167 485.154 100.086 503.252 101.204 505.713C102.211 507.919 106.45 518.991 106.644 520.699C107.213 525.925 102.739 524.116 100.269 520.882C93.8122 512.423 88.9218 499.521 82.8417 490.522C81.2962 488.235 79.7303 484.92 76.792 484.371C74.5449 483.944 64.9774 484.005 63.1066 484.869C62.3136 485.235 54.3017 492.576 52.8477 493.949C46.0457 500.395 40.057 508.57 32.5941 514.345C31.5774 515.138 31.3029 516.317 29.5439 515.86C30.8962 512.667 29.9506 508.661 31.0996 505.733C32.2485 502.805 43.392 491.193 46.3405 488.387C47.3674 487.411 50.4583 487.472 48.3435 485.357C43.7681 485.876 37.9625 484.666 33.6007 485.357C30.6522 478.515 25.9955 474.671 33.2245 468.683C33.7634 468.235 33.5194 467.086 33.6007 467.056V467.046ZM124.599 484.33C129.419 484.869 135.804 484.33 140.867 484.33C143.368 484.33 144.741 475.312 137.746 474.234C133.14 473.522 120.227 474.102 115.642 475.21C115.265 475.302 112.937 479.084 108.84 477.223C105.515 479.928 123.338 484.198 124.599 484.33Z" fill="#23140D"/>
<path d="M-62.9897 644.977V677.512C-62.6136 678.021 -61.6781 676.496 -61.4646 676.496H-9.10234V645.993H6.14881V676.496H62.0799C62.2629 678.458 61.8155 680.695 62.0799 682.596C62.1714 683.247 62.0189 683.969 62.0799 684.63V692.764H6.14881V748.684C1.50229 748.684 -4.38466 748.684 -9.10234 748.684V692.764H-62.9897V748.684V644.977Z" fill="#91040C"/>
<path d="M62.0694 682.594H97.6656V741.565C86.1561 741.514 73.5095 741.531 62 741.5C61.2171 723.921 61.5 706 61.9999 688C61.8982 686.129 62.1101 684.973 62.0796 684.627C62.0186 683.966 62.1711 683.244 62.0796 682.594H62.0694Z" fill="#274619"/>
<path d="M189.162 626.676C205.288 622.864 212.11 647.357 197.296 653.132C204.302 659.527 202.258 666.37 194.246 670.396C187.688 667.244 178.131 666.278 170.861 666.329C170.78 656.762 168.594 650.305 181.028 652.085C179.198 644.734 177.022 638.257 182.523 631.719C183.408 630.672 188.288 626.88 189.162 626.666V626.676ZM188.146 635.827C183.591 640.138 181.903 645.791 184.201 651.983C184.607 652.329 187.271 652.207 188.146 652.095C201.892 650.336 202.766 629.706 191.145 633.194C189.345 633.732 189.112 634.912 188.146 635.827Z" fill="#23140D"/>
<path d="M84.816 601.257C88.5272 601.297 92.2789 601.226 96.0002 601.257L97.5 667.345H61.4309C60.8107 660.756 62.2749 652.836 61.4615 646.451C61.3598 645.638 61.4208 644.926 60.4142 644.977C56.215 646.024 50.562 644.001 47.1965 643.96L48.2031 601.246C60.3837 601.348 72.6253 601.124 84.816 601.246V601.257Z" fill="#274619"/>
<path d="M127.904 574.07C130.578 577.172 128.3 582.713 126.45 585.763C125.342 587.593 113.07 598.472 111.9 597.181C111.717 592.321 120.39 565.347 127.904 574.06V574.07Z" fill="#91040C"/>
<path d="M97.6459 596.172C95.6429 598.287 83.7368 586.686 82.5269 584.358C78.4803 576.579 83.4521 567.266 90.3659 577.535C91.708 579.528 98.3373 595.44 97.6459 596.172Z" fill="#91040C"/>
<path d="M26.3105 618.714C26.8189 619.537 26.6867 624.794 26.4325 626.126C25.3548 631.82 14.7095 637.269 9.20894 637.859C8.37521 637.066 18.9391 618.155 19.8237 617.423C21.3386 616.162 25.8326 617.931 26.3207 618.714H26.3105Z" fill="#91040C"/>
<path d="M180.724 681.925C181.395 682.352 181.517 684.172 182.463 684.334C183.927 684.578 188.339 681.691 188.167 685.148C187.811 692.204 181.212 698.528 178.996 704.964C181.192 705.005 184.323 705.523 185.086 702.951L182.046 702.443C184.74 700.368 193.759 690.506 196.778 693.77C201.476 698.864 192.813 699.606 192.213 703.957L203.824 700.999C206.204 701.619 205.105 706.835 204.16 707.78C201.649 710.322 198.192 705.544 200.337 715.142C193.301 716.494 188.533 708.502 182.036 714.643C184.14 716.687 198.354 721.781 198.283 723.794C191.898 725.838 196.29 730.85 195.192 732.365C193.413 734.816 188.97 731.481 188.624 731.511C187.495 731.582 186.875 736.453 183.581 735.477C181.975 734.999 178.548 722.727 175.945 721.262C174.573 726.885 176.474 732.619 175.823 737.957C175.02 744.536 168.859 742.268 169.824 736.514C166.561 737.571 164.517 739.411 160.684 738.537C161.05 731.745 167.862 727.231 167.791 720.246C161.63 722.249 155.417 725.848 152.011 731.42C147.304 732.569 146.277 715.345 147.466 712.112C154.848 713.708 161.202 717.328 167.771 711.603C162.86 707.099 152.194 710.739 147.507 707.486C142.037 703.683 156.454 704.018 158.63 703.48C156.159 699.677 145.189 702.615 146.409 697.399C147.934 690.862 157.603 699.382 161.68 699.911C163.47 697.999 148.066 684.578 161.019 684.761L171.848 702.951C175.508 698.03 170.546 675.458 180.704 681.945L180.724 681.925Z" fill="#91040C"/>
<path d="M124.599 484.33C123.349 484.188 105.515 479.917 108.84 477.223C112.937 479.084 115.255 475.301 115.642 475.21C120.227 474.102 133.14 473.532 137.746 474.234C144.741 475.312 143.368 484.33 140.867 484.33C135.804 484.33 129.419 484.869 124.599 484.33Z" fill="#EFDBBF"/>
<path d="M188.146 652.092C187.271 652.204 184.608 652.326 184.201 651.98C181.903 645.788 183.591 640.145 188.146 635.824C190.494 640.532 188.898 647.059 188.146 652.092Z" fill="#91040C"/>
<path d="M62.0695 692.766C62.0695 711.392 62.0695 730.07 62.0695 748.697C43.4428 748.717 24.7652 748.656 6.13843 748.697V692.766H62.0593H62.0695Z" fill="#23140D"/>
<path d="M1009.2 312.239C1009.17 312.029 1009.2 320.352 1009.2 312.239V326.617H929.948V283.413H908.339V326.632H834.147C833.844 326.632 832.519 328.793 832 328.072V281.972C832 281.972 839.512 281.972 840.477 281.972C842.595 281.972 845.585 282.044 848.481 282.03C855.108 282.016 896.295 283.514 898.24 281.958C900.646 280.028 897.563 279.408 896.396 278.76C882.48 270.966 868.433 261.271 872.626 242.643C875.348 230.528 891.599 224.938 902.461 229.505C913.323 234.072 916.017 246.576 920.959 255.638C921.866 257.309 920.887 258.072 924.171 257.482C925.108 239.373 942.064 218.498 961.21 229.807C979.175 240.41 979.794 263.172 961.469 273.876C960.533 274.424 945.363 279.206 948.676 281.958C959.267 282.03 969.004 281.929 979.693 282.03C983.266 282.059 987.062 281.987 990.937 282.03C995.705 282.088 1009.17 281.972 1009.17 281.972C1009.17 281.972 1009.17 311.988 1009.2 312.239ZM958.545 244.747C957.853 243.637 951.486 241.131 949.339 242.917C948.086 243.954 933.118 270.75 934.299 271.874C942.093 271.038 957.176 263.316 958.703 255.249C959.063 253.362 959.251 245.899 958.53 244.747H958.545ZM897.765 243.637C886.614 237.111 883.935 254.096 893.616 263.259C897.016 266.471 914.706 274.424 913.568 267.451C913.179 265.074 899.782 244.819 897.765 243.637Z" fill="#274619"/>
<path d="M832.015 281.959V328.059C832.548 328.779 833.873 326.618 834.176 326.618H908.368V283.4H929.977V326.618H1009.23C1009.49 329.399 1008.85 332.568 1009.23 335.262C1009.36 336.184 1009.14 337.207 1009.23 338.143V349.668H929.977V428.903C923.394 428.903 915.052 428.903 908.368 428.903V349.668H832.015V428.903V281.959Z" fill="#91040C"/>
<path d="M1009.21 349.67C1009.21 376.062 1009.21 402.527 1009.21 428.919C982.819 428.948 956.355 428.861 929.963 428.919V349.67H1009.2H1009.21Z" fill="#274619"/>
<path d="M832.015 428.904V349.67H908.368V428.904C882.941 428.847 857.442 428.948 832.015 428.904Z" fill="#274619"/>
</svg>
