<svg width="1440" height="70" viewBox="0 0 1440 70" fill="none" xmlns="http://www.w3.org/2000/svg">
<rect width="1440" height="70" fill="#91040C"/>
<path d="M47.3093 31.4126C47.988 32.1019 52.0944 28.641 52.424 27.6071C53.1512 25.3285 51.275 15.8363 54.7705 16.6118C57.1121 18.7563 55.7207 22.4421 55.7886 25.1849C56.734 23.9164 58.6683 23.4617 59.2986 21.9491C60.1567 19.8859 59.7495 11.8058 60.8451 11.0303C61.9408 10.2549 63.1819 11.083 63.5697 12.2366C64.263 14.3141 63.1674 16.0182 63.5455 18.0047C65.0678 16.9373 72.3447 8.6944 73.2319 8.59866C73.9737 8.51729 76.0487 9.5943 75.8741 10.5229C75.7239 11.3415 67.1573 18.852 66.2168 20.6423C68.8057 21.3028 72.0926 19.7663 72.9992 23.2606C67.3755 26.1614 61.4608 22.7676 57.0055 28.7798C60.3312 29.5218 63.7685 29.3542 67.1864 29.4931V32.3699H57.2479C56.6709 32.3699 55.4589 31.0823 53.9609 31.4844C53.5391 31.5993 50.6205 34.4474 49.8691 35.1032C49.6509 35.2947 48.4098 35.5244 49.2534 36.1946C49.6606 36.5201 52.4483 35.7351 53.35 35.6968C57.5678 35.5292 64.0885 36.4291 67.7536 35.9505C68.6408 35.8356 74.1579 30.2877 75.9032 31.1445C79.5247 32.9204 72.2235 36.2042 72.5193 37.3865C74.1094 39.1337 78.5745 39.689 76.4268 42.6903C75.4136 44.1072 72.2914 41.4697 71.1036 40.699C70.6188 40.3831 69.4844 39.0667 69.3632 39.0667H51.1829C52.3222 40.7516 53.9366 42.2547 56.0019 42.6855C58.0381 43.1068 66.8955 42.6281 67.6373 43.3987C69.9952 44.0551 69.3632 45.7682 68.3499 45.7682H58.4502C60.3797 50.9906 64.2097 49.1286 68.3499 49.636C68.9414 49.7078 73.3289 50.8231 73.4792 51.0385C74.1161 51.4747 74.3585 52.9107 72.752 52.9484H65.2375C66.2507 55.8445 74.9142 60.569 73.9204 63.6517C72.9265 66.7344 69.3389 61.5264 68.6408 60.8371C67.1767 59.3771 66.0101 57.822 64.4199 56.5008C63.9007 56.0694 63.7394 55.0546 62.8037 56.0694C63.2983 57.2661 64.1224 62.9912 62.159 62.9385C58.8186 62.8476 60.5155 54.3653 59.6477 52.4793C59.5361 52.2352 56.2589 48.9754 56.0213 48.8749C55.4977 48.6499 55.0517 49.2434 55.0517 49.3583V57.4959C55.0517 58.3575 52.9913 58.3767 52.4628 57.1465C51.2605 54.3606 52.9137 48.5254 52.041 45.6246C51.7986 44.8157 49.6994 43.2025 48.9577 42.427C48.5359 41.9867 47.6778 39.6603 47.4063 41.5606C46.6742 46.6107 48.3807 52.2878 47.7893 57.4863C47.959 59.4824 56.3461 63.8241 52.6228 65.6431C49.9224 66.9594 47.4693 60.9568 44.8804 60.6121C43.1448 63.2544 41.2977 67.6104 37.6035 65.3893C36.852 63.1587 44.3859 57.673 44.3859 57.022V40.9862C43.1448 41.484 39.47 44.5763 39.15 45.6294C38.5198 47.7165 39.979 58.1469 37.2932 58.5873C37.1865 58.6065 35.1698 58.324 35.1698 58.2139V49.5977C30.5592 50.8039 32.4451 61.378 30.3411 62.8045C27.3498 64.8341 28.0964 57.0507 28.1449 55.8253C25.6094 57.3619 21.2412 64.3458 18.8221 64.8389C17.0089 65.2075 16.2186 64.1783 16.9943 62.5316C17.9009 60.6026 24.2422 55.8301 25.4736 53.1878C24.058 52.7091 15.4527 53.7287 17.4549 50.5407C18.7009 48.5494 27.6213 50.4976 30.312 48.8701L32.7457 45.773C31.5095 45.7874 25.0567 45.8161 24.5282 45.2704C24.3149 45.0502 24.4167 43.0062 24.9597 42.6281C26.2348 41.7425 33.1675 43.3892 35.8 42.8004C37.2156 42.4797 39.3536 40.2825 40.5026 39.306L24.4022 38.7029C20.931 39.105 18.6863 43.4323 15.0357 44.2747C11.6227 40.0815 17.5179 39.2438 20.131 37.3913C18.9675 36.0941 14.6479 34.658 14.9242 32.6954C15.6708 27.3917 22.2787 35.7159 22.8072 35.7159H41.957C40.5511 33.8586 38.7961 32.1593 36.7357 31.0153C35.1358 30.9387 25.5415 32.1402 25.047 31.829C24.4846 31.4748 24.2277 28.5357 25.2264 28.5357H34.1953C32.959 27.6119 31.2137 25.3956 29.9435 24.8355C27.1026 23.5766 18.6572 25.0365 17.4404 23.2989C15.3363 20.2976 23.2144 21.0156 24.2664 20.8768C24.8191 20.805 25.2458 21.0635 24.9791 20.1684C24.344 18.0382 16.1799 11.4707 16.272 9.62302C16.9846 8.63693 18.1627 8.70874 19.176 9.14434L27.6552 18.0047C28.2613 15.3145 27.088 12.3707 29.5945 10.3554C33.4002 13.2514 30.7192 18.4691 32.0961 21.7241C32.387 22.4134 33.0481 22.9118 33.6347 23.4719C34.3231 24.1276 34.5752 24.2659 35.5739 23.9882C36.2575 23.9069 35.1698 24.1031 35.1698 23.9882V14.654C41.2298 14.7641 38.0834 24.1797 39.1452 27.7219C39.4845 28.8468 42.3837 30.752 43.1691 31.8865C43.5084 28.349 44.9435 16.9899 43.4357 14.3907C43.0963 13.8067 33.7832 6.34884 38.8155 6.00419C41.448 5.82708 43.7945 11.3224 45.5931 11.3224C47.6196 11.3224 51.4205 3.2039 54.1209 7.22482C54.7123 8.10559 54.4942 8.23965 54.0142 9.07255C52.6325 11.4612 47.2899 14.4242 47.2899 17.2867V31.4078L47.3093 31.4126Z" fill="#EFDBBF"/>
<path d="M196.309 31.4126C196.988 32.1019 201.094 28.641 201.424 27.6071C202.151 25.3285 200.275 15.8363 203.77 16.6118C206.112 18.7563 204.721 22.4421 204.789 25.1849C205.734 23.9164 207.668 23.4617 208.299 21.9491C209.157 19.8859 208.749 11.8058 209.845 11.0303C210.941 10.2549 212.182 11.083 212.57 12.2366C213.263 14.3141 212.167 16.0182 212.546 18.0047C214.068 16.9373 221.345 8.6944 222.232 8.59866C222.974 8.51729 225.049 9.5943 224.874 10.5229C224.724 11.3415 216.157 18.852 215.217 20.6423C217.806 21.3028 221.093 19.7663 221.999 23.2606C216.375 26.1614 210.461 22.7676 206.005 28.7798C209.331 29.5218 212.769 29.3542 216.186 29.4931V32.3699H206.248C205.671 32.3699 204.459 31.0823 202.961 31.4844C202.539 31.5993 199.621 34.4474 198.869 35.1032C198.651 35.2947 197.41 35.5244 198.253 36.1946C198.661 36.5201 201.448 35.7351 202.35 35.6968C206.568 35.5292 213.088 36.4291 216.754 35.9505C217.641 35.8356 223.158 30.2877 224.903 31.1445C228.525 32.9204 221.224 36.2042 221.519 37.3865C223.109 39.1337 227.575 39.689 225.427 42.6903C224.414 44.1072 221.291 41.4697 220.104 40.699C219.619 40.3831 218.484 39.0667 218.363 39.0667H200.183C201.322 40.7516 202.937 42.2547 205.002 42.6855C207.038 43.1068 215.896 42.6281 216.637 43.3987C218.995 44.0551 218.363 45.7682 217.35 45.7682H207.45C209.38 50.9906 213.21 49.1286 217.35 49.636C217.941 49.7078 222.329 50.8231 222.479 51.0385C223.116 51.4747 223.358 52.9107 221.752 52.9484H214.237C215.251 55.8445 223.914 60.569 222.92 63.6517C221.927 66.7344 218.339 61.5264 217.641 60.8371C216.177 59.3771 215.01 57.822 213.42 56.5008C212.901 56.0694 212.739 55.0546 211.804 56.0694C212.298 57.2661 213.122 62.9912 211.159 62.9385C207.819 62.8476 209.515 54.3653 208.648 52.4793C208.536 52.2352 205.259 48.9754 205.021 48.8749C204.498 48.6499 204.052 49.2434 204.052 49.3583V57.4959C204.052 58.3575 201.991 58.3767 201.463 57.1465C200.26 54.3606 201.914 48.5254 201.041 45.6246C200.799 44.8157 198.699 43.2025 197.958 42.427C197.536 41.9867 196.678 39.6603 196.406 41.5606C195.674 46.6107 197.381 52.2878 196.789 57.4863C196.959 59.4824 205.346 63.8241 201.623 65.6431C198.922 66.9594 196.469 60.9568 193.88 60.6121C192.145 63.2544 190.298 67.6104 186.603 65.3893C185.852 63.1587 193.386 57.673 193.386 57.022V40.9862C192.145 41.484 188.47 44.5763 188.15 45.6294C187.52 47.7165 188.979 58.1469 186.293 58.5873C186.187 58.6065 184.17 58.324 184.17 58.2139V49.5977C179.559 50.8039 181.445 61.378 179.341 62.8045C176.35 64.8341 177.096 57.0507 177.145 55.8253C174.609 57.3619 170.241 64.3458 167.822 64.8389C166.009 65.2075 165.219 64.1783 165.994 62.5316C166.901 60.6026 173.242 55.8301 174.474 53.1878C173.058 52.7091 164.453 53.7287 166.455 50.5407C167.701 48.5494 176.621 50.4976 179.312 48.8701L181.746 45.773C180.509 45.7874 174.057 45.8161 173.528 45.2704C173.315 45.0502 173.417 43.0062 173.96 42.6281C175.235 41.7425 182.167 43.3892 184.8 42.8004C186.216 42.4797 188.354 40.2825 189.503 39.306L173.402 38.7029C169.931 39.105 167.686 43.4323 164.036 44.2747C160.623 40.0815 166.518 39.2438 169.131 37.3913C167.968 36.0941 163.648 34.658 163.924 32.6954C164.671 27.3917 171.279 35.7159 171.807 35.7159H190.957C189.551 33.8586 187.796 32.1593 185.736 31.0153C184.136 30.9387 174.541 32.1402 174.047 31.829C173.485 31.4748 173.228 28.5357 174.226 28.5357H183.195C181.959 27.6119 180.214 25.3956 178.944 24.8355C176.103 23.5766 167.657 25.0365 166.44 23.2989C164.336 20.2976 172.214 21.0156 173.266 20.8768C173.819 20.805 174.246 21.0635 173.979 20.1684C173.344 18.0382 165.18 11.4707 165.272 9.62302C165.985 8.63693 167.163 8.70874 168.176 9.14434L176.655 18.0047C177.261 15.3145 176.088 12.3707 178.594 10.3554C182.4 13.2514 179.719 18.4691 181.096 21.7241C181.387 22.4134 182.048 22.9118 182.635 23.4719C183.323 24.1276 183.575 24.2659 184.574 23.9882C185.257 23.9069 184.17 24.1031 184.17 23.9882V14.654C190.23 14.7641 187.083 24.1797 188.145 27.7219C188.485 28.8468 191.384 30.752 192.169 31.8865C192.508 28.349 193.943 16.9899 192.436 14.3907C192.096 13.8067 182.783 6.34884 187.816 6.00419C190.448 5.82708 192.794 11.3224 194.593 11.3224C196.62 11.3224 200.42 3.2039 203.121 7.22482C203.712 8.10559 203.494 8.23965 203.014 9.07255C201.632 11.4612 196.29 14.4242 196.29 17.2867V31.4078L196.309 31.4126Z" fill="#EFDBBF"/>
<path d="M1314.68 31.2597C1315.37 31.9719 1319.54 28.3957 1319.88 27.3273C1320.62 24.9728 1318.71 15.1642 1322.26 15.9655C1324.64 18.1815 1323.23 21.9902 1323.3 24.8244C1324.26 23.5136 1326.22 23.0437 1326.86 21.4807C1327.73 19.3488 1327.32 10.9993 1328.43 10.198C1329.55 9.39671 1330.81 10.2524 1331.2 11.4445C1331.9 13.5912 1330.79 15.3521 1331.18 17.4049C1332.72 16.3018 1340.11 7.78421 1341.02 7.68528C1341.77 7.6012 1343.88 8.71411 1343.7 9.67371C1343.55 10.5195 1334.84 18.2804 1333.89 20.1303C1336.52 20.8129 1339.86 19.2251 1340.78 22.836C1335.07 25.8335 1329.06 22.3265 1324.53 28.5392C1327.91 29.3059 1331.4 29.1327 1334.87 29.2762V32.2489H1324.78C1324.19 32.2489 1322.96 30.9184 1321.44 31.3339C1321.01 31.4526 1318.05 34.3957 1317.28 35.0733C1317.06 35.2712 1315.8 35.5086 1316.66 36.2011C1317.07 36.5374 1319.9 35.7262 1320.82 35.6867C1325.1 35.5136 1331.73 36.4435 1335.45 35.9488C1336.35 35.8301 1341.96 30.0973 1343.73 30.9827C1347.41 32.8178 1339.99 36.211 1340.29 37.4327C1341.91 39.2382 1346.44 39.8119 1344.26 42.9133C1343.23 44.3774 1340.06 41.652 1338.85 40.8556C1338.36 40.5292 1337.21 39.1689 1337.09 39.1689H1318.62C1319.77 40.91 1321.41 42.4632 1323.51 42.9084C1325.58 43.3436 1334.58 42.849 1335.33 43.6454C1337.73 44.3236 1337.09 46.0938 1336.06 46.0938H1326C1327.96 51.4903 1331.85 49.5662 1336.06 50.0905C1336.66 50.1647 1341.11 51.3172 1341.27 51.5398C1341.91 51.9905 1342.16 53.4744 1340.53 53.5134H1332.89C1333.92 56.5059 1342.72 61.388 1341.72 64.5735C1340.71 67.7589 1337.06 62.3773 1336.35 61.665C1334.86 60.1563 1333.68 58.5494 1332.06 57.1842C1331.54 56.7384 1331.37 55.6898 1330.42 56.7384C1330.92 57.975 1331.76 63.8909 1329.77 63.8365C1326.37 63.7425 1328.1 54.9775 1327.22 53.0286C1327.1 52.7764 1323.77 49.4079 1323.53 49.304C1323 49.0715 1322.55 49.6849 1322.55 49.8036V58.2124C1322.55 59.1028 1320.45 59.1226 1319.92 57.8514C1318.7 54.9726 1320.38 48.9429 1319.49 45.9454C1319.24 45.1095 1317.11 43.4426 1316.36 42.6413C1315.93 42.1862 1315.06 39.7823 1314.78 41.746C1314.04 46.9644 1315.77 52.8308 1315.17 58.2025C1315.34 60.2652 1323.86 64.7515 1320.08 66.6312C1317.34 67.9914 1314.84 61.7887 1312.21 61.4325C1310.45 64.1629 1308.57 68.6641 1304.82 66.369C1304.06 64.064 1311.71 58.3955 1311.71 57.7228V41.1524C1310.45 41.6668 1306.72 44.8622 1306.39 45.9504C1305.75 48.107 1307.24 58.8852 1304.51 59.3402C1304.4 59.36 1302.35 59.0682 1302.35 58.9544V50.0509C1297.67 51.2974 1299.58 62.224 1297.44 63.698C1294.41 65.7952 1295.16 57.7524 1295.21 56.4862C1292.64 58.0739 1288.2 65.2907 1285.74 65.8002C1283.9 66.181 1283.1 65.1176 1283.89 63.416C1284.81 61.4226 1291.25 56.4911 1292.5 53.7607C1291.06 53.2661 1282.32 54.3197 1284.35 51.0254C1285.62 48.9677 1294.68 50.9808 1297.41 49.2991L1299.89 46.0988C1298.63 46.1136 1292.08 46.1433 1291.54 45.5794C1291.32 45.3519 1291.43 43.2398 1291.98 42.849C1293.27 41.9339 1300.32 43.6355 1302.99 43.0271C1304.43 42.6957 1306.6 40.4253 1307.77 39.4162L1291.41 38.793C1287.88 39.2085 1285.6 43.68 1281.9 44.5506C1278.43 40.2175 1284.42 39.3519 1287.07 37.4377C1285.89 36.0972 1281.5 34.6133 1281.78 32.5853C1282.54 27.1047 1289.25 35.7065 1289.79 35.7065H1309.24C1307.82 33.7873 1306.03 32.0313 1303.94 30.8491C1302.32 30.77 1292.57 32.0115 1292.07 31.69C1291.49 31.324 1291.23 28.2869 1292.25 28.2869H1301.36C1300.1 27.3322 1298.33 25.0421 1297.04 24.4634C1294.15 23.1625 1285.57 24.6711 1284.34 22.8756C1282.2 19.7742 1290.2 20.5161 1291.27 20.3727C1291.83 20.2985 1292.27 20.5656 1292 19.6407C1291.35 17.4395 1283.06 10.6531 1283.15 8.74379C1283.88 7.72483 1285.07 7.79903 1286.1 8.24915L1294.72 17.4049C1295.33 14.625 1294.14 11.583 1296.69 9.50059C1300.55 12.4931 1297.83 17.8847 1299.23 21.2482C1299.52 21.9605 1300.19 22.4755 1300.79 23.0543C1301.49 23.7319 1301.75 23.8747 1302.76 23.5878C1303.45 23.5038 1302.35 23.7066 1302.35 23.5878V13.9424C1308.51 14.0562 1305.31 23.7857 1306.39 27.446C1306.73 28.6084 1309.68 30.5771 1310.48 31.7494C1310.82 28.094 1312.28 16.3563 1310.75 13.6704C1310.4 13.0669 1300.94 5.36047 1306.05 5.00433C1308.73 4.82132 1311.11 10.4998 1312.94 10.4998C1315 10.4998 1318.86 2.1107 1321.6 6.26565C1322.2 7.17578 1321.98 7.3143 1321.49 8.17497C1320.09 10.6432 1314.66 13.705 1314.66 16.6629V31.2547L1314.68 31.2597Z" fill="#EFDBBF"/>
<path d="M123.656 49.5132C125.116 51.9705 132.088 52.7819 132.088 56.3569C130.477 60.5641 125.41 55.6966 122.708 54.2297V63.8985C122.419 66.9314 118.916 66.4597 118.916 63.8985V54.7014C117.238 55.3287 111.982 59.6537 110.503 57.8803C109.925 57.187 109.83 55.8475 110.588 55.1589C111.972 53.8996 117.499 51.032 118.196 49.5085C118.106 47.9049 119.243 40.8113 118.708 40.0473C118.243 39.387 113.982 39.3775 113.219 39.8397C112.57 40.2312 110.332 50.6595 106.119 51.1782C100.379 49.5085 107.725 43.2167 108.484 39.6086H100.189C99.8716 39.6086 96.4448 43.6837 95.9566 44.3534C94.8191 45.9193 94.4541 47.1221 92.3685 46.9192C89.2213 45.3816 93.3781 41.7782 94.2645 40.0803L85.0219 39.8397C82.5288 39.8397 82.1306 35.8354 85.0219 35.8354H94.2645L90.5105 32.232C88.7663 29.2795 92.0842 28.492 93.1506 29.2795C94.6721 29.0201 100.166 35.8307 100.668 35.8307H108.963C107.195 31.9538 98.0089 22.5964 105.408 23.1057C110.28 27.242 109.873 37.4532 118.442 35.3638C118.665 30.836 119.253 26.327 118.817 21.7803C118.177 20.6908 110.868 17.7572 109.901 16.7337C107.252 14.3426 108.963 13.2576 110.441 13.2576C111.991 13.1635 117.428 15.8611 118.911 16.4979V5.88577C118.817 1.60721 123.651 2.78536 123.651 4.94247V16.0262C125.504 15.5215 129.481 12.4511 131.088 12.3096C134.031 12.2202 133.268 14.5361 133.083 15.05C132.557 16.8943 125.102 20.4503 123.651 21.9218V36.3071C125.372 36.2033 126.993 36.7835 128.429 35.6374C129.984 34.3969 135.174 23.8178 136.221 23.5679C139.482 21.6531 140.904 24.7188 139.653 26.6289C139.695 27.1571 134.486 33.8451 133.605 35.3591C133.209 36.0384 132.534 35.7788 133.832 35.8307C136.036 35.9251 138.71 36.1137 140.714 35.3591C142.089 34.6235 141.345 35.2044 142.8 33.916C143.923 32.921 145.407 28.8739 147.118 28.8739C152.043 29.4353 147.165 32.8546 145.923 35.826C146.696 36.3967 153.46 34.8167 155.574 35.4251C157.493 35.8026 157.73 39.6039 154.692 39.6039H145.923C146.597 41.0802 149.981 43.1035 150.118 44.6364C150.858 46.1788 149.673 48.0654 147.573 47.0324C147.061 46.9946 141.198 39.6039 140.468 39.6039H133.595C134.23 42.2876 137.984 45.8297 138.335 48.3577C138.51 49.6264 136.164 51.367 134.316 49.0274C132.799 47.7823 128.581 40.1416 127.817 39.703C127.505 39.5237 124.049 39.4718 123.646 39.6039C122.945 39.835 123.215 40.2359 123.153 40.7595C122.95 42.3866 122.945 48.3247 123.646 49.5085L123.656 49.5132Z" fill="#EFDBBF"/>
<path d="M1240.05 49.9899C1241.53 52.5252 1248.6 53.3623 1248.6 57.0507C1246.96 61.3916 1241.83 56.3695 1239.09 54.8561V64.8318C1238.8 67.9609 1235.25 67.4743 1235.25 64.8318V55.3427C1233.54 55.9899 1228.22 60.4522 1226.72 58.6225C1226.13 57.9072 1226.04 56.5252 1226.8 55.8147C1228.21 54.5154 1233.81 51.5568 1234.52 49.985C1234.42 48.3305 1235.58 41.0117 1235.03 40.2234C1234.56 39.5421 1230.24 39.5324 1229.47 40.0092C1228.81 40.4131 1226.55 51.1725 1222.27 51.7076C1216.46 49.985 1223.9 43.4935 1224.67 39.7708H1216.27C1215.94 39.7708 1212.47 43.9752 1211.98 44.6662C1210.82 46.2818 1210.45 47.5228 1208.34 47.3134C1205.15 45.7271 1209.36 42.0093 1210.26 40.2574L1200.89 40.0092C1198.37 40.0092 1197.96 35.8778 1200.89 35.8778H1210.26L1206.46 32.16C1204.69 29.1138 1208.05 28.3013 1209.13 29.1138C1210.67 28.8461 1216.24 35.873 1216.75 35.873H1225.16C1223.37 31.8729 1214.06 22.2185 1221.55 22.7439C1226.49 27.0116 1226.08 37.5469 1234.76 35.3912C1234.99 30.7197 1235.59 26.0676 1235.14 21.3765C1234.5 20.2524 1227.09 17.2256 1226.11 16.1697C1223.42 13.7027 1225.16 12.5833 1226.66 12.5833C1228.23 12.4861 1233.74 15.2694 1235.24 15.9264V4.97738C1235.14 0.562999 1240.04 1.77855 1240.04 4.00414V15.4397C1241.92 14.9191 1245.95 11.7511 1247.58 11.6052C1250.56 11.5129 1249.79 13.9023 1249.6 14.4326C1249.07 16.3354 1241.51 20.0042 1240.04 21.5225V36.3645C1241.79 36.2574 1243.43 36.856 1244.89 35.6735C1246.46 34.3937 1251.72 23.4787 1252.78 23.2208C1256.09 21.2453 1257.53 24.4083 1256.26 26.379C1256.31 26.924 1251.03 33.8243 1250.13 35.3863C1249.73 36.0872 1249.05 35.8194 1250.36 35.873C1252.6 35.9703 1255.31 36.1649 1257.34 35.3863C1258.73 34.6274 1257.98 35.2268 1259.45 33.8974C1260.59 32.8708 1262.09 28.6953 1263.83 28.6953C1268.82 29.2745 1263.88 32.8024 1262.62 35.8681C1263.4 36.4569 1270.26 34.8267 1272.4 35.4545C1274.34 35.8439 1274.58 39.7659 1271.5 39.7659H1262.62C1263.3 41.2891 1266.73 43.3767 1266.87 44.9582C1267.62 46.5496 1266.42 48.4961 1264.29 47.4302C1263.77 47.3913 1257.83 39.7659 1257.09 39.7659H1250.12C1250.77 42.5348 1254.57 46.1893 1254.93 48.7976C1255.1 50.1066 1252.73 51.9024 1250.85 49.4886C1249.32 48.2039 1245.04 40.3207 1244.27 39.8681C1243.95 39.6832 1240.45 39.6297 1240.04 39.7659C1239.33 40.0044 1239.6 40.418 1239.54 40.9582C1239.33 42.637 1239.33 48.7636 1240.04 49.985L1240.05 49.9899Z" fill="#EFDBBF"/>
<path d="M1392.05 49.9899C1393.53 52.5252 1400.6 53.3623 1400.6 57.0507C1398.96 61.3916 1393.83 56.3695 1391.09 54.8561V64.8318C1390.8 67.9609 1387.25 67.4743 1387.25 64.8318V55.3427C1385.54 55.9899 1380.22 60.4522 1378.72 58.6225C1378.13 57.9072 1378.04 56.5252 1378.8 55.8147C1380.21 54.5154 1385.81 51.5568 1386.52 49.985C1386.42 48.3305 1387.58 41.0117 1387.03 40.2234C1386.56 39.5421 1382.24 39.5324 1381.47 40.0092C1380.81 40.4131 1378.55 51.1725 1374.27 51.7076C1368.46 49.985 1375.9 43.4935 1376.67 39.7708H1368.27C1367.94 39.7708 1364.47 43.9752 1363.98 44.6662C1362.82 46.2818 1362.45 47.5228 1360.34 47.3134C1357.15 45.7271 1361.36 42.0093 1362.26 40.2574L1352.89 40.0092C1350.37 40.0092 1349.96 35.8778 1352.89 35.8778H1362.26L1358.46 32.16C1356.69 29.1138 1360.05 28.3013 1361.13 29.1138C1362.67 28.8461 1368.24 35.873 1368.75 35.873H1377.16C1375.37 31.8729 1366.06 22.2185 1373.55 22.7439C1378.49 27.0116 1378.08 37.5469 1386.76 35.3912C1386.99 30.7197 1387.59 26.0676 1387.14 21.3765C1386.5 20.2524 1379.09 17.2256 1378.11 16.1697C1375.42 13.7027 1377.16 12.5833 1378.66 12.5833C1380.23 12.4861 1385.74 15.2694 1387.24 15.9264V4.97738C1387.14 0.562999 1392.04 1.77855 1392.04 4.00414V15.4397C1393.92 14.9191 1397.95 11.7511 1399.58 11.6052C1402.56 11.5129 1401.79 13.9023 1401.6 14.4326C1401.07 16.3354 1393.51 20.0042 1392.04 21.5225V36.3645C1393.79 36.2574 1395.43 36.856 1396.89 35.6735C1398.46 34.3937 1403.72 23.4787 1404.78 23.2208C1408.09 21.2453 1409.53 24.4083 1408.26 26.379C1408.31 26.924 1403.03 33.8243 1402.13 35.3863C1401.73 36.0872 1401.05 35.8194 1402.36 35.873C1404.6 35.9703 1407.31 36.1649 1409.34 35.3863C1410.73 34.6274 1409.98 35.2268 1411.45 33.8974C1412.59 32.8708 1414.09 28.6953 1415.83 28.6953C1420.82 29.2745 1415.88 32.8024 1414.62 35.8681C1415.4 36.4569 1422.26 34.8267 1424.4 35.4545C1426.34 35.8439 1426.58 39.7659 1423.5 39.7659H1414.62C1415.3 41.2891 1418.73 43.3767 1418.87 44.9582C1419.62 46.5496 1418.42 48.4961 1416.29 47.4302C1415.77 47.3913 1409.83 39.7659 1409.09 39.7659H1402.12C1402.77 42.5348 1406.57 46.1893 1406.93 48.7976C1407.1 50.1066 1404.73 51.9024 1402.85 49.4886C1401.32 48.2039 1397.04 40.3207 1396.27 39.8681C1395.95 39.6832 1392.45 39.6297 1392.04 39.7659C1391.33 40.0044 1391.6 40.418 1391.54 40.9582C1391.33 42.637 1391.33 48.7636 1392.04 49.985L1392.05 49.9899Z" fill="#EFDBBF"/>
</svg>
