<svg width="978" height="231" viewBox="0 0 978 231" fill="none" xmlns="http://www.w3.org/2000/svg">
<path d="M119 0H823V229H119V0Z" fill="#91040C"/>
<path d="M813 228.992C813 228.992 813.5 206.001 802.5 190.501C791.5 175 761.371 169.767 744.5 177.996C727.629 186.225 707.772 200.685 678 190.5C648.228 180.314 603.619 181.4 554 196.5C504.381 211.6 485.188 186.244 444.5 190.5C403.812 194.756 390.871 202.808 374 193.499C357.129 184.189 292.715 168.272 255.5 185.5C218.285 202.728 196.179 177.996 170.5 177.996C144.821 177.996 134.213 186.995 131.703 208.494C129.193 229.992 134.213 228.992 134.213 228.992L813 228.992Z" fill="#EFDBBF"/>
<path d="M151.067 130.083C151.047 129.904 151.067 137 151.067 130.083V142.342H83.5047V105.509H65.0818V142.354H1.82999C1.57207 142.354 0.442149 144.197 0 143.582V104.28C0 104.28 6.40397 104.28 7.22686 104.28C9.0323 104.28 11.5819 104.342 14.0506 104.329C19.7003 104.317 54.8141 105.594 56.4722 104.268C58.5233 102.622 55.8949 102.094 54.9001 101.541C43.0358 94.897 31.0609 86.6312 34.6349 70.7507C36.9562 60.4216 50.8103 55.6562 60.0709 59.5496C69.3314 63.443 71.6281 74.1036 75.8408 81.8289C76.6145 83.2536 75.7794 83.9046 78.5796 83.4011C79.378 67.9627 93.8339 50.1662 110.157 59.8075C125.472 68.847 126 88.2524 110.378 97.3779C109.579 97.8446 96.6463 101.922 99.4712 104.268C108.5 104.329 116.801 104.243 125.914 104.329C128.96 104.354 132.196 104.293 135.5 104.329C139.565 104.379 151.043 104.28 151.043 104.28C151.043 104.28 151.043 129.869 151.067 130.083ZM107.884 72.5438C107.295 71.5981 101.866 69.4611 100.036 70.9841C98.9676 71.8684 86.2067 94.7127 87.2139 95.6707C93.8584 94.9583 106.717 88.3753 108.019 81.4974C108.326 79.8885 108.486 73.5264 107.872 72.5438H107.884ZM56.067 71.5982C46.5608 66.0345 44.2763 80.5148 52.5298 88.3261C55.4283 91.065 70.5104 97.8446 69.5402 91.9001C69.2086 89.8736 57.7864 72.6053 56.067 71.5982Z" fill="#23140D"/>
<path d="M0.0124512 104.27V143.572C0.466882 144.186 1.59682 142.343 1.85474 142.343H65.1066V105.498H83.5294V142.343H151.092C151.313 144.714 150.773 147.416 151.092 149.713C151.203 150.499 151.019 151.371 151.092 152.169V161.995H83.5294V229.545C77.9166 229.545 70.8054 229.545 65.1066 229.545V161.995H0.0124512V229.545V104.27Z" fill="#91040C"/>
<path d="M151.08 161.996C151.08 184.497 151.08 207.058 151.08 229.559C128.579 229.583 106.017 229.51 83.5168 229.559V161.996H151.067H151.08Z" fill="#23140D"/>
<path d="M0.0124512 229.547V161.996H65.1066V229.547C43.429 229.497 21.69 229.583 0.0124512 229.547Z" fill="#23140D"/>
<path d="M872.499 144.645C872.481 144.49 872.499 150.62 872.499 144.645V155.234H814.135V123.416H798.22V155.245H743.581C743.358 155.245 742.382 156.836 742 156.306V122.355C742 122.355 747.532 122.355 748.243 122.355C749.802 122.355 752.005 122.408 754.137 122.397C759.018 122.387 789.351 123.49 790.783 122.344C792.555 120.923 790.284 120.467 789.425 119.989C779.176 114.249 768.832 107.109 771.919 93.3908C773.924 84.4681 785.892 80.3515 793.892 83.7148C801.891 87.078 803.875 96.2872 807.514 102.961C808.183 104.191 807.461 104.754 809.88 104.319C810.57 90.9824 823.058 75.609 837.158 83.9375C850.388 91.7462 850.844 108.51 837.349 116.392C836.659 116.796 825.487 120.318 827.927 122.344C835.727 122.397 842.898 122.323 850.77 122.397C853.401 122.419 856.197 122.366 859.051 122.397C862.562 122.44 872.477 122.355 872.477 122.355C872.477 122.355 872.477 144.46 872.499 144.645ZM835.195 94.9397C834.686 94.1228 829.996 92.2768 828.415 93.5924C827.492 94.3563 816.469 114.09 817.339 114.918C823.079 114.302 834.187 108.616 835.312 102.674C835.577 101.284 835.715 95.7885 835.184 94.9397H835.195ZM790.433 94.1228C782.221 89.3167 780.248 101.825 787.377 108.573C789.881 110.939 802.91 116.796 802.072 111.661C801.785 109.91 791.918 94.9928 790.433 94.1228Z" fill="#23140D"/>
<path d="M742.011 122.346V156.297C742.403 156.827 743.38 155.236 743.602 155.236H798.242V123.407H814.156V155.236H872.52C872.711 157.283 872.244 159.617 872.52 161.601C872.615 162.28 872.456 163.034 872.52 163.723V172.211H814.156V230.564C809.308 230.564 803.165 230.564 798.242 230.564V172.211H742.011V230.564V122.346Z" fill="#91040C"/>
<path d="M872.509 172.213C872.509 191.65 872.509 211.14 872.509 230.577C853.072 230.598 833.582 230.534 814.145 230.577V172.213H872.498H872.509Z" fill="#23140D"/>
<path d="M742.011 230.566V172.213H798.242V230.566C779.516 230.523 760.737 230.598 742.011 230.566Z" fill="#23140D"/>
</svg>
