<svg width="1440" height="89" viewBox="0 0 1440 89" fill="none" xmlns="http://www.w3.org/2000/svg">
<rect width="1440" height="89" fill="#91040C"/>
<path d="M53.5965 37.648C54.383 38.4522 59.1411 34.4145 59.5231 33.2082C60.3657 30.55 58.1917 19.4757 62.242 20.3804C64.9553 22.8823 63.3431 27.1824 63.4217 30.3824C64.5171 28.9025 66.7586 28.372 67.4888 26.6072C68.4832 24.2003 68.0113 14.7734 69.2809 13.8687C70.5504 12.964 71.9885 13.9302 72.438 15.2761C73.2413 17.6998 71.9717 19.6879 72.4099 22.0055C74.1738 20.7601 82.6058 11.1435 83.6338 11.0318C84.4933 10.9368 86.8977 12.1933 86.6954 13.2768C86.5213 14.2317 76.595 22.994 75.5052 25.0826C78.505 25.8533 82.3137 24.0606 83.3642 28.1374C76.8478 31.5217 69.9943 27.5622 64.8317 34.5765C68.6854 35.4421 72.6683 35.2466 76.6287 35.4086V38.7649H65.1126C64.4441 38.7649 63.0397 37.2627 61.3039 37.7318C60.8151 37.8658 57.4333 41.1887 56.5626 41.9538C56.3098 42.1771 54.8717 42.4452 55.8492 43.227C56.321 43.6068 59.5512 42.6909 60.596 42.6462C65.4834 42.4508 73.039 43.5007 77.2859 42.9422C78.314 42.8082 84.7068 36.3356 86.7291 37.3353C90.9255 39.4072 82.4654 43.2382 82.8081 44.6176C84.6506 46.656 89.8244 47.3038 87.3358 50.8054C86.1618 52.4584 82.544 49.3813 81.1677 48.4822C80.6059 48.1136 79.2914 46.5778 79.151 46.5778H58.085C59.4051 48.5436 61.2758 50.2971 63.6689 50.7998C66.0283 51.2912 76.2916 50.7327 77.1511 51.6319C79.8833 52.3977 79.151 54.3963 77.9769 54.3963H66.5058C68.7416 60.4891 73.1795 58.3167 77.9769 58.9086C78.6623 58.9924 83.7462 60.2936 83.9203 60.5449C84.6583 61.0538 84.9392 62.7292 83.0777 62.7732H74.3704C75.5445 66.1519 85.5831 71.6639 84.4315 75.2604C83.2799 78.8568 79.1229 72.7808 78.314 71.9766C76.6175 70.2733 75.2657 68.459 73.4231 66.9176C72.8214 66.4143 72.6346 65.2304 71.5504 66.4143C72.1234 67.8105 73.0784 74.4897 70.8032 74.4283C66.9327 74.3221 68.8989 64.4262 67.8933 62.2259C67.7641 61.9411 63.9666 58.1379 63.6913 58.0207C63.0846 57.7582 62.5678 58.4507 62.5678 58.5847V68.0786C62.5678 69.0838 60.1803 69.1061 59.568 67.6709C58.1749 64.4206 60.0905 57.613 59.0793 54.2287C58.7984 53.2849 56.366 51.4029 55.5065 50.4982C55.0178 49.9844 54.0234 47.2703 53.7089 49.4874C52.8606 55.3792 54.838 62.0025 54.1527 68.0674C54.3493 70.3962 64.0677 75.4614 59.7534 77.5836C56.6244 79.1193 53.7819 72.1162 50.7821 71.7141C48.771 74.7968 46.6307 79.8788 42.3501 77.2876C41.4793 74.6851 50.2091 68.2852 50.2091 67.5257V48.8172C48.771 49.398 44.5128 53.0057 44.1421 54.2343C43.4118 56.6692 45.1027 68.8381 41.9905 69.3519C41.8669 69.3742 39.53 69.0447 39.53 68.9162V58.8639C34.1877 60.2713 36.3729 72.6077 33.9349 74.2719C30.4688 76.6398 31.3339 67.5592 31.3901 66.1295C28.4521 67.9222 23.3907 76.0701 20.5875 76.6454C18.4865 77.0754 17.5708 75.8747 18.4696 73.9536C19.5201 71.703 26.8679 66.1351 28.2948 63.0524C26.6545 62.4939 16.6832 63.6835 19.0033 59.9641C20.447 57.6409 30.7834 59.9138 33.9012 58.0151L36.7212 54.4018C35.2887 54.4186 27.8117 54.4521 27.1994 53.8155C26.9522 53.5586 27.0702 51.1739 27.6994 50.7328C29.1768 49.6996 37.21 51.6207 40.2603 50.9338C41.9007 50.5596 44.378 47.9963 45.7094 46.857L27.0533 46.1534C23.0311 46.6225 20.4302 51.671 16.2001 52.6539C12.2453 47.7617 19.0763 46.7844 22.1042 44.6232C20.756 43.1098 15.7507 41.4344 16.0709 39.1447C16.936 32.9569 24.5928 42.6686 25.2051 42.6686H47.3947C45.7656 40.5017 43.732 38.5192 41.3445 37.1845C39.4907 37.0951 28.3735 38.4969 27.8005 38.1339C27.1488 37.7206 26.8511 34.2917 28.0083 34.2917H38.4009C36.9684 33.2138 34.9461 30.6282 33.4743 29.9748C30.1823 28.506 20.3965 30.2093 18.9864 28.1821C16.5484 24.6805 25.677 25.5182 26.896 25.3563C27.5364 25.2725 28.0308 25.5741 27.7218 24.5298C26.9859 22.0446 17.5259 14.3825 17.6326 12.2269C18.4584 11.0764 19.8235 11.1602 20.9976 11.6684L30.8227 22.0055C31.5249 18.867 30.1655 15.4324 33.0698 13.0813C37.4796 16.46 34.3731 22.5472 35.9685 26.3448C36.3055 27.149 37.0716 27.7304 37.7513 28.3838C38.549 29.1489 38.8411 29.3102 39.9983 28.9863C40.7904 28.8913 39.53 29.1203 39.53 28.9863V18.0963C46.552 18.2247 42.9062 29.2097 44.1365 33.3423C44.5297 34.6546 47.889 36.8773 48.7991 38.2009C49.1923 34.0739 50.8551 20.8216 49.108 17.7891C48.7148 17.1078 37.9234 8.40698 43.7545 8.00489C46.8048 7.79826 49.5237 14.2094 51.6079 14.2094C53.956 14.2094 58.3602 4.73789 61.4892 9.42896C62.1746 10.4565 61.9218 10.6129 61.3657 11.5846C59.7646 14.3714 53.574 17.8282 53.574 21.1678V37.6424L53.5965 37.648Z" fill="#EFDBBF"/>
<path d="M226.597 37.648C227.383 38.4522 232.141 34.4145 232.523 33.2082C233.366 30.55 231.192 19.4757 235.242 20.3804C237.955 22.8823 236.343 27.1824 236.422 30.3824C237.517 28.9025 239.759 28.372 240.489 26.6072C241.483 24.2003 241.011 14.7734 242.281 13.8687C243.55 12.964 244.989 13.9302 245.438 15.2761C246.241 17.6998 244.972 19.6879 245.41 22.0055C247.174 20.7601 255.606 11.1435 256.634 11.0318C257.493 10.9368 259.898 12.1933 259.695 13.2768C259.521 14.2317 249.595 22.994 248.505 25.0826C251.505 25.8533 255.314 24.0606 256.364 28.1374C249.848 31.5217 242.994 27.5622 237.832 34.5765C241.685 35.4421 245.668 35.2466 249.629 35.4086V38.7649H238.113C237.444 38.7649 236.04 37.2627 234.304 37.7318C233.815 37.8658 230.433 41.1887 229.563 41.9538C229.31 42.1771 227.872 42.4452 228.849 43.227C229.321 43.6068 232.551 42.6909 233.596 42.6462C238.483 42.4508 246.039 43.5007 250.286 42.9422C251.314 42.8082 257.707 36.3356 259.729 37.3353C263.925 39.4072 255.465 43.2382 255.808 44.6176C257.651 46.656 262.824 47.3038 260.336 50.8054C259.162 52.4584 255.544 49.3813 254.168 48.4822C253.606 48.1136 252.291 46.5778 252.151 46.5778H231.085C232.405 48.5436 234.276 50.2971 236.669 50.7998C239.028 51.2912 249.292 50.7327 250.151 51.6319C252.883 52.3977 252.151 54.3963 250.977 54.3963H239.506C241.742 60.4891 246.179 58.3167 250.977 58.9086C251.662 58.9924 256.746 60.2936 256.92 60.5449C257.658 61.0538 257.939 62.7292 256.078 62.7732H247.37C248.544 66.1519 258.583 71.6639 257.432 75.2604C256.28 78.8568 252.123 72.7808 251.314 71.9766C249.617 70.2733 248.266 68.459 246.423 66.9176C245.821 66.4143 245.635 65.2304 244.55 66.4143C245.123 67.8105 246.078 74.4897 243.803 74.4283C239.933 74.3221 241.899 64.4262 240.893 62.2259C240.764 61.9411 236.967 58.1379 236.691 58.0207C236.085 57.7582 235.568 58.4507 235.568 58.5847V68.0786C235.568 69.0838 233.18 69.1061 232.568 67.6709C231.175 64.4206 233.09 57.613 232.079 54.2287C231.798 53.2849 229.366 51.4029 228.506 50.4982C228.018 49.9844 227.023 47.2703 226.709 49.4874C225.861 55.3792 227.838 62.0025 227.153 68.0674C227.349 70.3962 237.068 75.4614 232.753 77.5836C229.624 79.1193 226.782 72.1162 223.782 71.7141C221.771 74.7968 219.631 79.8788 215.35 77.2876C214.479 74.6851 223.209 68.2852 223.209 67.5257V48.8172C221.771 49.398 217.513 53.0057 217.142 54.2343C216.412 56.6692 218.103 68.8381 214.991 69.3519C214.867 69.3742 212.53 69.0447 212.53 68.9162V58.8639C207.188 60.2713 209.373 72.6077 206.935 74.2719C203.469 76.6398 204.334 67.5592 204.39 66.1295C201.452 67.9222 196.391 76.0701 193.587 76.6454C191.486 77.0754 190.571 75.8747 191.47 73.9536C192.52 71.703 199.868 66.1351 201.295 63.0524C199.654 62.4939 189.683 63.6835 192.003 59.9641C193.447 57.6409 203.783 59.9138 206.901 58.0151L209.721 54.4018C208.289 54.4186 200.812 54.4521 200.199 53.8155C199.952 53.5586 200.07 51.1739 200.699 50.7328C202.177 49.6996 210.21 51.6207 213.26 50.9338C214.901 50.5596 217.378 47.9963 218.709 46.857L200.053 46.1534C196.031 46.6225 193.43 51.671 189.2 52.6539C185.245 47.7617 192.076 46.7844 195.104 44.6232C193.756 43.1098 188.751 41.4344 189.071 39.1447C189.936 32.9569 197.593 42.6686 198.205 42.6686H220.395C218.766 40.5017 216.732 38.5192 214.345 37.1845C212.491 37.0951 201.373 38.4969 200.8 38.1339C200.149 37.7206 199.851 34.2917 201.008 34.2917H211.401C209.968 33.2138 207.946 30.6282 206.474 29.9748C203.182 28.506 193.396 30.2093 191.986 28.1821C189.548 24.6805 198.677 25.5182 199.896 25.3563C200.536 25.2725 201.031 25.5741 200.722 24.5298C199.986 22.0446 190.526 14.3825 190.633 12.2269C191.458 11.0764 192.823 11.1602 193.998 11.6684L203.823 22.0055C204.525 18.867 203.165 15.4324 206.07 13.0813C210.48 16.46 207.373 22.5472 208.968 26.3448C209.306 27.149 210.072 27.7304 210.751 28.3838C211.549 29.1489 211.841 29.3102 212.998 28.9863C213.79 28.8913 212.53 29.1203 212.53 28.9863V18.0963C219.552 18.2247 215.906 29.2097 217.136 33.3423C217.53 34.6546 220.889 36.8773 221.799 38.2009C222.192 34.0739 223.855 20.8216 222.108 17.7891C221.715 17.1078 210.923 8.40698 216.754 8.00489C219.805 7.79826 222.524 14.2094 224.608 14.2094C226.956 14.2094 231.36 4.73789 234.489 9.42896C235.175 10.4565 234.922 10.6129 234.366 11.5846C232.765 14.3714 226.574 17.8282 226.574 21.1678V37.6424L226.597 37.648Z" fill="#EFDBBF"/>
<path d="M142.15 58.8963C143.807 61.7436 151.722 62.6838 151.722 66.8262C149.892 71.7013 144.141 66.0611 141.074 64.3614V75.5649C140.746 79.0792 136.77 78.5327 136.77 75.5649V64.9079C134.865 65.6348 128.898 70.6463 127.22 68.5914C126.563 67.7881 126.456 66.236 127.316 65.438C128.888 63.9789 135.161 60.6561 135.952 58.8908C135.85 57.0327 137.141 48.8131 136.533 47.9278C136.006 47.1627 131.169 47.1517 130.303 47.6873C129.565 48.1409 127.026 60.2245 122.243 60.8255C115.727 58.8908 124.067 51.6003 124.928 47.4195H115.512C115.152 47.4195 111.262 52.1414 110.707 52.9174C109.416 54.7319 109.002 56.1257 106.635 55.8905C103.062 54.1088 107.781 49.9335 108.787 47.966L98.2952 47.6873C95.4651 47.6873 95.0131 43.0474 98.2951 43.0474H108.787L104.525 38.872C102.546 35.4509 106.312 34.5384 107.522 35.4509C109.249 35.1503 115.485 43.0419 116.055 43.0419H125.471C123.464 38.5496 113.037 27.707 121.436 28.297C126.967 33.09 126.504 44.922 136.232 42.5009C136.485 37.2544 137.152 32.0297 136.657 26.7613C135.93 25.4989 127.634 22.0996 126.536 20.9136C123.529 18.143 125.471 16.8858 127.15 16.8858C128.909 16.7767 135.08 19.9026 136.764 20.6404V8.34383C136.657 3.38614 142.145 4.75129 142.145 7.2508V20.0939C144.248 19.5091 148.762 15.9513 150.586 15.7873C153.927 15.6837 153.061 18.3672 152.851 18.9628C152.254 21.0998 143.791 25.2202 142.145 26.9253V43.5939C144.098 43.4737 145.938 44.1459 147.568 42.8179C149.333 41.3806 155.224 29.1223 156.413 28.8326C160.115 26.6139 161.729 30.1663 160.308 32.3795C160.357 32.9916 154.444 40.7411 153.443 42.4954C152.994 43.2826 152.227 42.9818 153.701 43.0419C156.203 43.1512 159.238 43.3699 161.514 42.4954C163.074 41.6431 162.23 42.3162 163.881 40.8233C165.156 39.6703 166.84 34.9809 168.782 34.9809C174.373 35.6314 168.836 39.5934 167.427 43.0365C168.304 43.6978 175.981 41.867 178.381 42.572C180.56 43.0093 180.829 47.4141 177.38 47.4141H167.427C168.191 49.1246 172.032 51.4692 172.188 53.2453C173.028 55.0326 171.682 57.2187 169.299 56.0216C168.718 55.9779 162.062 47.4141 161.234 47.4141H153.432C154.153 50.5237 158.415 54.628 158.813 57.5573C159.012 59.0275 156.349 61.0443 154.25 58.3334C152.529 56.8906 147.74 48.0371 146.874 47.5288C146.519 47.3212 142.597 47.261 142.139 47.4141C141.343 47.6818 141.65 48.1464 141.58 48.753C141.348 50.6385 141.343 57.5191 142.139 58.8908L142.15 58.8963Z" fill="#EFDBBF"/>
<path d="M1210.6 37.648C1211.38 38.4522 1216.14 34.4145 1216.52 33.2082C1217.37 30.55 1215.19 19.4757 1219.24 20.3804C1221.96 22.8823 1220.34 27.1824 1220.42 30.3824C1221.52 28.9025 1223.76 28.372 1224.49 26.6072C1225.48 24.2003 1225.01 14.7734 1226.28 13.8687C1227.55 12.964 1228.99 13.9302 1229.44 15.2761C1230.24 17.6998 1228.97 19.6879 1229.41 22.0055C1231.17 20.7601 1239.61 11.1435 1240.63 11.0318C1241.49 10.9368 1243.9 12.1933 1243.7 13.2768C1243.52 14.2317 1233.59 22.994 1232.51 25.0826C1235.5 25.8533 1239.31 24.0606 1240.36 28.1374C1233.85 31.5217 1226.99 27.5622 1221.83 34.5765C1225.69 35.4421 1229.67 35.2466 1233.63 35.4086V38.7649H1222.11C1221.44 38.7649 1220.04 37.2627 1218.3 37.7318C1217.82 37.8658 1214.43 41.1887 1213.56 41.9538C1213.31 42.1771 1211.87 42.4452 1212.85 43.227C1213.32 43.6068 1216.55 42.6909 1217.6 42.6462C1222.48 42.4508 1230.04 43.5007 1234.29 42.9422C1235.31 42.8082 1241.71 36.3356 1243.73 37.3353C1247.93 39.4072 1239.47 43.2382 1239.81 44.6176C1241.65 46.656 1246.82 47.3038 1244.34 50.8054C1243.16 52.4584 1239.54 49.3813 1238.17 48.4822C1237.61 48.1136 1236.29 46.5778 1236.15 46.5778H1215.08C1216.41 48.5436 1218.28 50.2971 1220.67 50.7998C1223.03 51.2912 1233.29 50.7327 1234.15 51.6319C1236.88 52.3977 1236.15 54.3963 1234.98 54.3963H1223.51C1225.74 60.4891 1230.18 58.3167 1234.98 58.9086C1235.66 58.9924 1240.75 60.2936 1240.92 60.5449C1241.66 61.0538 1241.94 62.7292 1240.08 62.7732H1231.37C1232.54 66.1519 1242.58 71.6639 1241.43 75.2604C1240.28 78.8568 1236.12 72.7808 1235.31 71.9766C1233.62 70.2733 1232.27 68.459 1230.42 66.9176C1229.82 66.4143 1229.63 65.2304 1228.55 66.4143C1229.12 67.8105 1230.08 74.4897 1227.8 74.4283C1223.93 74.3221 1225.9 64.4262 1224.89 62.2259C1224.76 61.9411 1220.97 58.1379 1220.69 58.0207C1220.08 57.7582 1219.57 58.4507 1219.57 58.5847V68.0786C1219.57 69.0838 1217.18 69.1061 1216.57 67.6709C1215.17 64.4206 1217.09 57.613 1216.08 54.2287C1215.8 53.2849 1213.37 51.4029 1212.51 50.4982C1212.02 49.9844 1211.02 47.2703 1210.71 49.4874C1209.86 55.3792 1211.84 62.0025 1211.15 68.0674C1211.35 70.3962 1221.07 75.4614 1216.75 77.5836C1213.62 79.1193 1210.78 72.1162 1207.78 71.7141C1205.77 74.7968 1203.63 79.8788 1199.35 77.2876C1198.48 74.6851 1207.21 68.2852 1207.21 67.5257V48.8172C1205.77 49.398 1201.51 53.0057 1201.14 54.2343C1200.41 56.6692 1202.1 68.8381 1198.99 69.3519C1198.87 69.3742 1196.53 69.0447 1196.53 68.9162V58.8639C1191.19 60.2713 1193.37 72.6077 1190.93 74.2719C1187.47 76.6398 1188.33 67.5592 1188.39 66.1295C1185.45 67.9222 1180.39 76.0701 1177.59 76.6454C1175.49 77.0754 1174.57 75.8747 1175.47 73.9536C1176.52 71.703 1183.87 66.1351 1185.29 63.0524C1183.65 62.4939 1173.68 63.6835 1176 59.9641C1177.45 57.6409 1187.78 59.9138 1190.9 58.0151L1193.72 54.4018C1192.29 54.4186 1184.81 54.4521 1184.2 53.8155C1183.95 53.5586 1184.07 51.1739 1184.7 50.7328C1186.18 49.6996 1194.21 51.6207 1197.26 50.9338C1198.9 50.5596 1201.38 47.9963 1202.71 46.857L1184.05 46.1534C1180.03 46.6225 1177.43 51.671 1173.2 52.6539C1169.25 47.7617 1176.08 46.7844 1179.1 44.6232C1177.76 43.1098 1172.75 41.4344 1173.07 39.1447C1173.94 32.9569 1181.59 42.6686 1182.21 42.6686H1204.39C1202.77 40.5017 1200.73 38.5192 1198.34 37.1845C1196.49 37.0951 1185.37 38.4969 1184.8 38.1339C1184.15 37.7206 1183.85 34.2917 1185.01 34.2917H1195.4C1193.97 33.2138 1191.95 30.6282 1190.47 29.9748C1187.18 28.506 1177.4 30.2093 1175.99 28.1821C1173.55 24.6805 1182.68 25.5182 1183.9 25.3563C1184.54 25.2725 1185.03 25.5741 1184.72 24.5298C1183.99 22.0446 1174.53 14.3825 1174.63 12.2269C1175.46 11.0764 1176.82 11.1602 1178 11.6684L1187.82 22.0055C1188.52 18.867 1187.17 15.4324 1190.07 13.0813C1194.48 16.46 1191.37 22.5472 1192.97 26.3448C1193.31 27.149 1194.07 27.7304 1194.75 28.3838C1195.55 29.1489 1195.84 29.3102 1197 28.9863C1197.79 28.8913 1196.53 29.1203 1196.53 28.9863V18.0963C1203.55 18.2247 1199.91 29.2097 1201.14 33.3423C1201.53 34.6546 1204.89 36.8773 1205.8 38.2009C1206.19 34.0739 1207.86 20.8216 1206.11 17.7891C1205.71 17.1078 1194.92 8.40698 1200.75 8.00489C1203.8 7.79826 1206.52 14.2094 1208.61 14.2094C1210.96 14.2094 1215.36 4.73789 1218.49 9.42896C1219.17 10.4565 1218.92 10.6129 1218.37 11.5846C1216.76 14.3714 1210.57 17.8282 1210.57 21.1678V37.6424L1210.6 37.648Z" fill="#EFDBBF"/>
<path d="M1383.6 37.648C1384.38 38.4522 1389.14 34.4145 1389.52 33.2082C1390.37 30.55 1388.19 19.4757 1392.24 20.3804C1394.96 22.8823 1393.34 27.1824 1393.42 30.3824C1394.52 28.9025 1396.76 28.372 1397.49 26.6072C1398.48 24.2003 1398.01 14.7734 1399.28 13.8687C1400.55 12.964 1401.99 13.9302 1402.44 15.2761C1403.24 17.6998 1401.97 19.6879 1402.41 22.0055C1404.17 20.7601 1412.61 11.1435 1413.63 11.0318C1414.49 10.9368 1416.9 12.1933 1416.7 13.2768C1416.52 14.2317 1406.59 22.994 1405.51 25.0826C1408.5 25.8533 1412.31 24.0606 1413.36 28.1374C1406.85 31.5217 1399.99 27.5622 1394.83 34.5765C1398.69 35.4421 1402.67 35.2466 1406.63 35.4086V38.7649H1395.11C1394.44 38.7649 1393.04 37.2627 1391.3 37.7318C1390.82 37.8658 1387.43 41.1887 1386.56 41.9538C1386.31 42.1771 1384.87 42.4452 1385.85 43.227C1386.32 43.6068 1389.55 42.6909 1390.6 42.6462C1395.48 42.4508 1403.04 43.5007 1407.29 42.9422C1408.31 42.8082 1414.71 36.3356 1416.73 37.3353C1420.93 39.4072 1412.47 43.2382 1412.81 44.6176C1414.65 46.656 1419.82 47.3038 1417.34 50.8054C1416.16 52.4584 1412.54 49.3813 1411.17 48.4822C1410.61 48.1136 1409.29 46.5778 1409.15 46.5778H1388.08C1389.41 48.5436 1391.28 50.2971 1393.67 50.7998C1396.03 51.2912 1406.29 50.7327 1407.15 51.6319C1409.88 52.3977 1409.15 54.3963 1407.98 54.3963H1396.51C1398.74 60.4891 1403.18 58.3167 1407.98 58.9086C1408.66 58.9924 1413.75 60.2936 1413.92 60.5449C1414.66 61.0538 1414.94 62.7292 1413.08 62.7732H1404.37C1405.54 66.1519 1415.58 71.6639 1414.43 75.2604C1413.28 78.8568 1409.12 72.7808 1408.31 71.9766C1406.62 70.2733 1405.27 68.459 1403.42 66.9176C1402.82 66.4143 1402.63 65.2304 1401.55 66.4143C1402.12 67.8105 1403.08 74.4897 1400.8 74.4283C1396.93 74.3221 1398.9 64.4262 1397.89 62.2259C1397.76 61.9411 1393.97 58.1379 1393.69 58.0207C1393.08 57.7582 1392.57 58.4507 1392.57 58.5847V68.0786C1392.57 69.0838 1390.18 69.1061 1389.57 67.6709C1388.17 64.4206 1390.09 57.613 1389.08 54.2287C1388.8 53.2849 1386.37 51.4029 1385.51 50.4982C1385.02 49.9844 1384.02 47.2703 1383.71 49.4874C1382.86 55.3792 1384.84 62.0025 1384.15 68.0674C1384.35 70.3962 1394.07 75.4614 1389.75 77.5836C1386.62 79.1193 1383.78 72.1162 1380.78 71.7141C1378.77 74.7968 1376.63 79.8788 1372.35 77.2876C1371.48 74.6851 1380.21 68.2852 1380.21 67.5257V48.8172C1378.77 49.398 1374.51 53.0057 1374.14 54.2343C1373.41 56.6692 1375.1 68.8381 1371.99 69.3519C1371.87 69.3742 1369.53 69.0447 1369.53 68.9162V58.8639C1364.19 60.2713 1366.37 72.6077 1363.93 74.2719C1360.47 76.6398 1361.33 67.5592 1361.39 66.1295C1358.45 67.9222 1353.39 76.0701 1350.59 76.6454C1348.49 77.0754 1347.57 75.8747 1348.47 73.9536C1349.52 71.703 1356.87 66.1351 1358.29 63.0524C1356.65 62.4939 1346.68 63.6835 1349 59.9641C1350.45 57.6409 1360.78 59.9138 1363.9 58.0151L1366.72 54.4018C1365.29 54.4186 1357.81 54.4521 1357.2 53.8155C1356.95 53.5586 1357.07 51.1739 1357.7 50.7328C1359.18 49.6996 1367.21 51.6207 1370.26 50.9338C1371.9 50.5596 1374.38 47.9963 1375.71 46.857L1357.05 46.1534C1353.03 46.6225 1350.43 51.671 1346.2 52.6539C1342.25 47.7617 1349.08 46.7844 1352.1 44.6232C1350.76 43.1098 1345.75 41.4344 1346.07 39.1447C1346.94 32.9569 1354.59 42.6686 1355.21 42.6686H1377.39C1375.77 40.5017 1373.73 38.5192 1371.34 37.1845C1369.49 37.0951 1358.37 38.4969 1357.8 38.1339C1357.15 37.7206 1356.85 34.2917 1358.01 34.2917H1368.4C1366.97 33.2138 1364.95 30.6282 1363.47 29.9748C1360.18 28.506 1350.4 30.2093 1348.99 28.1821C1346.55 24.6805 1355.68 25.5182 1356.9 25.3563C1357.54 25.2725 1358.03 25.5741 1357.72 24.5298C1356.99 22.0446 1347.53 14.3825 1347.63 12.2269C1348.46 11.0764 1349.82 11.1602 1351 11.6684L1360.82 22.0055C1361.52 18.867 1360.17 15.4324 1363.07 13.0813C1367.48 16.46 1364.37 22.5472 1365.97 26.3448C1366.31 27.149 1367.07 27.7304 1367.75 28.3838C1368.55 29.1489 1368.84 29.3102 1370 28.9863C1370.79 28.8913 1369.53 29.1203 1369.53 28.9863V18.0963C1376.55 18.2247 1372.91 29.2097 1374.14 33.3423C1374.53 34.6546 1377.89 36.8773 1378.8 38.2009C1379.19 34.0739 1380.86 20.8216 1379.11 17.7891C1378.71 17.1078 1367.92 8.40698 1373.75 8.00489C1376.8 7.79826 1379.52 14.2094 1381.61 14.2094C1383.96 14.2094 1388.36 4.73789 1391.49 9.42896C1392.17 10.4565 1391.92 10.6129 1391.37 11.5846C1389.76 14.3714 1383.57 17.8282 1383.57 21.1678V37.6424L1383.6 37.648Z" fill="#EFDBBF"/>
<path d="M1299.15 58.8963C1300.81 61.7436 1308.72 62.6838 1308.72 66.8262C1306.89 71.7013 1301.14 66.0611 1298.07 64.3614V75.5649C1297.75 79.0792 1293.77 78.5327 1293.77 75.5649V64.9079C1291.87 65.6348 1285.9 70.6463 1284.22 68.5914C1283.56 67.7881 1283.46 66.236 1284.32 65.438C1285.89 63.9789 1292.16 60.6561 1292.95 58.8908C1292.85 57.0327 1294.14 48.8131 1293.53 47.9278C1293.01 47.1627 1288.17 47.1517 1287.3 47.6873C1286.57 48.1409 1284.03 60.2245 1279.24 60.8255C1272.73 58.8908 1281.07 51.6003 1281.93 47.4195H1272.51C1272.15 47.4195 1268.26 52.1414 1267.71 52.9174C1266.42 54.7319 1266 56.1257 1263.63 55.8905C1260.06 54.1088 1264.78 49.9335 1265.79 47.966L1255.3 47.6873C1252.47 47.6873 1252.01 43.0474 1255.3 43.0474H1265.79L1261.53 38.872C1259.55 35.4509 1263.31 34.5384 1264.52 35.4509C1266.25 35.1503 1272.49 43.0419 1273.06 43.0419H1282.47C1280.46 38.5496 1270.04 27.707 1278.44 28.297C1283.97 33.09 1283.5 44.922 1293.23 42.5009C1293.48 37.2544 1294.15 32.0297 1293.66 26.7613C1292.93 25.4989 1284.63 22.0996 1283.54 20.9136C1280.53 18.143 1282.47 16.8858 1284.15 16.8858C1285.91 16.7767 1292.08 19.9026 1293.76 20.6404V8.34383C1293.66 3.38614 1299.14 4.75129 1299.14 7.2508V20.0939C1301.25 19.5091 1305.76 15.9513 1307.59 15.7873C1310.93 15.6837 1310.06 18.3672 1309.85 18.9628C1309.25 21.0998 1300.79 25.2202 1299.14 26.9253V43.5939C1301.1 43.4737 1302.94 44.1459 1304.57 42.8179C1306.33 41.3806 1312.22 29.1223 1313.41 28.8326C1317.11 26.6139 1318.73 30.1663 1317.31 32.3795C1317.36 32.9916 1311.44 40.7411 1310.44 42.4954C1309.99 43.2826 1309.23 42.9818 1310.7 43.0419C1313.2 43.1512 1316.24 43.3699 1318.51 42.4954C1320.07 41.6431 1319.23 42.3162 1320.88 40.8233C1322.16 39.6703 1323.84 34.9809 1325.78 34.9809C1331.37 35.6314 1325.84 39.5934 1324.43 43.0365C1325.3 43.6978 1332.98 41.867 1335.38 42.572C1337.56 43.0093 1337.83 47.4141 1334.38 47.4141H1324.43C1325.19 49.1246 1329.03 51.4692 1329.19 53.2453C1330.03 55.0326 1328.68 57.2187 1326.3 56.0216C1325.72 55.9779 1319.06 47.4141 1318.23 47.4141H1310.43C1311.15 50.5237 1315.41 54.628 1315.81 57.5573C1316.01 59.0275 1313.35 61.0443 1311.25 58.3334C1309.53 56.8906 1304.74 48.0371 1303.87 47.5288C1303.52 47.3212 1299.6 47.261 1299.14 47.4141C1298.34 47.6818 1298.65 48.1464 1298.58 48.753C1298.35 50.6385 1298.34 57.5191 1299.14 58.8908L1299.15 58.8963Z" fill="#EFDBBF"/>
</svg>
